<?xml version="1.0" encoding="UTF-8"?>
<svg id="Calque_2" xmlns="http://www.w3.org/2000/svg" version="1.1" viewBox="0 0 332.2 263.7">
  <!-- Generator: Adobe Illustrator 29.8.2, SVG Export Plug-In . SVG Version: 2.1.1 Build 3)  -->
  <defs>
    <style>
      .st0 {
        fill: #fff;
      }
    </style>
  </defs>
  <g id="Calque_1-2">
    <path class="st0" d="M317.3,51.2v-24.3c0-10.6-3.4-12.7-9-12.7s-9,2.1-9,12.7v24.3c0,7.7,4.4,9.7,9,9.7s9-2.3,9-9.7M316.3,108h-15.9l12.1-35.5c-2.8.8-5.4,1.2-7.8,1.2-14.2,0-20.2-9.7-20.2-23v-26.1C284.4,10,294.1,0,308.3,0s23.9,10,23.9,24.6v23.2c0,8.5-.5,15.3-3.4,22.8-4.4,11.8-10.3,31.2-12.6,37.5"/>
    <polygon class="st0" points="0 90.1 0 136 16.2 136 16.2 129.9 6.4 129.9 6.4 90.1 0 90.1"/>
    <polygon class="st0" points="27.1 96.2 27.1 109.8 35.2 109.8 35.2 115.4 27.1 115.4 27.1 129.9 37.9 129.9 37.9 136 20.8 136 20.8 90.1 37.9 90.1 37.9 96.2 27.1 96.2"/>
    <path class="st0" d="M92,113.2h-11.1v127.5h11.1c8.9,0,17.7-3.9,17.7-20.2v-87.4c0-15.8-8.6-19.9-17.7-19.9M133.4,133.2v87.7c0,28.1-15.8,42.8-38.4,42.8h-37.9V90.1h37.9c22.7,0,38.4,15.3,38.4,43.1"/>
    <rect class="st0" x="155.9" y="90.1" width="23.9" height="173.6"/>
    <polygon class="st0" points="257.3 90.1 240.8 143.5 224.6 90.1 198.7 90.1 228 174.3 197.2 263.7 222.9 263.7 240.8 205.3 259 263.7 284.4 263.7 253.6 174.3 282.9 90.1 257.3 90.1"/>
  </g>
</svg>